<?xml version="1.0" standalone="no"?>
<!DOCTYPE svg PUBLIC "-//W3C//DTD SVG 20010904//EN"
 "http://www.w3.org/TR/2001/REC-SVG-20010904/DTD/svg10.dtd">
<svg version="1.0" xmlns="http://www.w3.org/2000/svg"
 width="512.000000pt" height="512.000000pt" viewBox="0 0 512.000000 512.000000"
 preserveAspectRatio="xMidYMid meet">
<metadata>
Created by potrace 1.14, written by Peter Selinger 2001-2017
</metadata>
<g transform="translate(0.000000,512.000000) scale(0.100000,-0.100000)"
fill="#000000" stroke="none">
<path d="M135 5113 c-54 -14 -109 -70 -125 -128 -8 -29 -10 -607 -8 -2055 l3
-2015 25 -35 c14 -19 210 -220 436 -445 342 -343 417 -413 451 -423 31 -9 498
-12 2049 -12 1821 1 2012 2 2042 17 48 24 88 70 101 116 9 31 11 570 9 2057
l-3 2015 -25 35 c-14 19 -206 217 -428 438 -283 283 -416 410 -445 423 -41 18
-103 19 -2052 18 -1105 -1 -2019 -4 -2030 -6z m3738 -373 l77 0 0 -1645 c0
-905 -3 -1645 -7 -1645 -3 0 -96 90 -205 199 l-198 199 0 1162 c0 1278 4 1199
-61 1266 -17 18 -50 37 -72 43 -31 9 -373 11 -1267 9 l-1225 -3 -38 -25 c-22
-15 -47 -45 -62 -74 l-25 -50 0 -1764 0 -1765 -205 206 -206 206 0 1538 c0
846 1 1674 1 1840 l0 302 143 3 c105 2 2459 1 3350 -2z m867 -2519 c0 -1747
-1 -1841 -17 -1841 -26 0 -3028 -1 -3310 0 l-243 0 0 1651 0 1651 205 -204
205 -205 2 -1179 3 -1179 25 -37 c14 -21 46 -49 71 -63 l47 -25 1229 0 c1224
0 1229 0 1268 21 45 24 70 51 90 98 13 29 15 260 15 1798 l0 1765 205 -205
205 -205 0 -1841z m-1580 1524 l0 -205 -656 0 -656 0 -206 205 -205 205 861 0
862 0 0 -205z m0 -1185 l0 -600 -600 0 -600 0 0 600 0 600 600 0 600 0 0 -600z
m318 -1185 l205 -205 -861 0 -862 0 0 205 0 205 656 0 656 0 206 -205z"/>
</g>
</svg>
